<?xml version="1.0" encoding="UTF-8"?>
<svg id="Layer_1" data-name="Layer 1" xmlns="http://www.w3.org/2000/svg" xmlns:xlink="http://www.w3.org/1999/xlink" viewBox="0 0 149.64 238.07">
  <defs>
    <style>
      .cls-1 {
        fill: #666;
      }

      .cls-2 {
        fill: url(#linear-gradient);
      }
    </style>
    <linearGradient id="linear-gradient" x1="27.11" y1="83.9" x2="122.53" y2="83.9" gradientUnits="userSpaceOnUse">
      <stop offset="0" stop-color="#17abff"/>
      <stop offset="1" stop-color="#00e5ff"/>
    </linearGradient>
  </defs>
  <path class="cls-2" d="M27.11,135.27l13.63,7.87,13.63,7.87,5.45,3.14,8.18,4.73,6.82,3.93,6.81-3.93,8.19-4.73,5.44-3.14,27.26-15.74V35H27.11v100.27ZM95.26,50h13.63v75.82l-13.63,7.87V50ZM68,50h13.63v91.56l-6.81,3.93-6.82-3.93V50ZM40.74,50h13.63v83.69l-13.63-7.87V50ZM122.53,12.5v15H27.12v-15h27.26l7.5-7.5h25.88l7.51,7.5h27.26Z"/>
  <g>
    <g>
      <path class="cls-1" d="M22.36,195.4l-.33-.39h-5.16l.34.4,6.92,8.27h5.21l-6.98-8.28ZM28.05,182.27c-.4-.67-.94-1.2-1.61-1.61-.66-.4-1.4-.61-2.21-.61H5v23.63h3.95v-8.25l8.26-.02h5.15s1.87-.01,1.87-.01c.81,0,1.55-.2,2.21-.59.67-.39,1.21-.93,1.61-1.61.41-.68.61-1.41.61-2.2v-6.51c0-.81-.2-1.55-.61-2.22ZM24.69,190.83c0,.18-.06.32-.18.43-.13.11-.27.16-.45.16h-14.52c-.15,0-.29-.05-.41-.16-.12-.11-.18-.25-.18-.43v-6.24c0-.15.06-.29.18-.41s.26-.18.41-.18h14.52c.18,0,.32.06.45.18.12.12.18.26.18.41v6.24Z"/>
      <path class="cls-1" d="M31.72,180.02v23.66h3.91v-23.66h-3.91Z"/>
      <path class="cls-1" d="M62.44,186.04v-1.58c0-.81-.2-1.56-.6-2.24-.41-.68-.95-1.21-1.62-1.61-.66-.39-1.4-.59-2.21-.59h-14.82c-.81,0-1.55.2-2.22.59-.67.4-1.2.93-1.59,1.61-.4.68-.59,1.43-.59,2.24v4.96c0,.81.19,1.55.59,2.22.39.67.92,1.2,1.59,1.61.67.4,1.41.61,2.22.61h14.65c.18,0,.33.05.45.16.12.11.18.24.18.4v4.69c0,.18-.06.32-.18.43s-.27.16-.45.16h-14.52c-.18,0-.32-.05-.43-.16s-.16-.25-.16-.43v-1.44h-3.94v1.57c0,.82.19,1.56.59,2.24.39.68.92,1.22,1.59,1.61.67.39,1.41.59,2.22.59h14.82c.81,0,1.55-.2,2.21-.59.67-.39,1.21-.93,1.62-1.61.4-.68.6-1.42.6-2.24v-4.96c0-.81-.2-1.55-.6-2.22-.41-.66-.95-1.2-1.62-1.61-.66-.4-1.4-.6-2.21-.6h-14.69c-.18,0-.32-.06-.43-.17s-.16-.24-.16-.39v-4.7c0-.18.05-.32.16-.43s.25-.16.43-.16h14.52c.18,0,.33.05.45.16s.18.25.18.43v1.45h3.97Z"/>
      <path class="cls-1" d="M87.65,184v-3.98h-21.72v23.66h21.72v-3.98h-17.75v-5.84h14.3v-4.01h-14.3v-5.85h17.75Z"/>
      <path class="cls-1" d="M118.76,182.22c-.4-.68-.94-1.21-1.6-1.61-.67-.39-1.41-.59-2.22-.59h-14.79c-.81,0-1.56.2-2.24.59-.67.4-1.21.93-1.61,1.61-.39.68-.59,1.43-.59,2.24v14.78c0,.82.2,1.56.59,2.24.4.68.94,1.22,1.61,1.61.68.39,1.43.59,2.24.59h14.79c.81,0,1.55-.2,2.22-.59.66-.39,1.2-.93,1.6-1.61.41-.68.61-1.42.61-2.24v-14.78c0-.81-.2-1.56-.61-2.24ZM115.4,199.11c0,.18-.06.32-.18.43-.12.11-.27.16-.45.16h-14.52c-.16,0-.29-.05-.41-.16-.12-.11-.18-.25-.18-.43v-14.52c0-.18.06-.32.18-.43.12-.11.25-.16.41-.16h14.52c.18,0,.33.05.45.16.12.11.18.25.18.43v14.52Z"/>
      <path class="cls-1" d="M144.64,184v-3.98h-21.72v23.66h3.98v-9.82h14.29v-4.01h-14.29v-5.85h17.74Z"/>
    </g>
    <g>
      <path class="cls-1" d="M5,207.94v4.23h10.47v20.9h4.22v-20.9h10.43v-4.23H5Z"/>
      <path class="cls-1" d="M51.04,224.27l-.36-.42h-5.48l.37.44,7.34,8.78h5.54l-7.41-8.8ZM57.08,210.33c-.43-.71-1-1.28-1.71-1.71-.71-.43-1.5-.64-2.36-.64h-20.41v25.09h4.19v-8.76l8.78-.02,5.47-.02h1.97c.86,0,1.65-.21,2.36-.63.71-.41,1.28-.98,1.71-1.71.43-.71.64-1.5.64-2.33v-6.91c0-.86-.21-1.65-.64-2.36ZM53.5,219.42c0,.19-.06.34-.19.46-.13.11-.29.17-.47.17h-15.42c-.17,0-.31-.06-.44-.17-.13-.12-.19-.27-.19-.46v-6.63c0-.16.06-.31.19-.43.13-.13.27-.19.44-.19h15.42c.18,0,.34.06.47.19.13.12.19.27.19.43v6.63Z"/>
      <path class="cls-1" d="M85.79,210.28c-.43-.72-1-1.29-1.71-1.71-.71-.42-1.49-.63-2.35-.63h-15.7c-.86,0-1.65.21-2.37.63-.72.42-1.3.99-1.71,1.71-.42.72-.63,1.51-.63,2.37v20.42h4.18v-8.62h16.72v8.62h4.22v-20.42c0-.86-.21-1.65-.65-2.37ZM82.22,220.26h-16.72v-7.47c0-.18.07-.33.2-.45.13-.12.27-.17.43-.17h15.42c.19,0,.35.05.48.17.12.12.19.27.19.45v7.47Z"/>
      <path class="cls-1" d="M115.3,214.33v-1.68c0-.86-.22-1.65-.65-2.37s-1-1.29-1.71-1.71c-.71-.42-1.49-.63-2.35-.63h-15.74c-.86,0-1.65.21-2.36.63-.71.42-1.27.99-1.69,1.71-.42.72-.63,1.51-.63,2.37v5.27c0,.86.21,1.65.63,2.36.42.71.98,1.28,1.69,1.71.71.43,1.5.64,2.36.64h15.56c.19,0,.34.06.47.18.13.11.19.25.19.42v4.99c0,.18-.06.33-.19.45s-.28.17-.47.17h-15.42c-.19,0-.34-.05-.45-.17-.12-.12-.18-.27-.18-.45v-1.54h-4.19v1.68c0,.86.21,1.65.63,2.37.42.72.98,1.29,1.69,1.71.71.42,1.5.63,2.36.63h15.74c.86,0,1.64-.21,2.35-.63s1.28-.99,1.71-1.71c.43-.72.65-1.51.65-2.37v-5.27c0-.86-.22-1.65-.65-2.36-.43-.71-1-1.28-1.71-1.71-.71-.43-1.49-.64-2.35-.64h-15.6c-.19,0-.34-.06-.45-.18-.12-.11-.18-.25-.18-.42v-4.99c0-.18.06-.33.18-.45.11-.12.26-.17.45-.17h15.42c.19,0,.34.05.47.17.13.12.19.27.19.45v1.54h4.23Z"/>
      <path class="cls-1" d="M140.45,207.94v10.44h-17.3v-10.44h-4.19v25.13h4.19v-10.44h17.3v10.44h4.19v-25.13h-4.19Z"/>
    </g>
  </g>
</svg>